<?xml version="1.0" encoding="utf-8" standalone="no"?>
<!DOCTYPE svg PUBLIC "-//W3C//DTD SVG 1.1//EN"
  "http://www.w3.org/Graphics/SVG/1.1/DTD/svg11.dtd">
<svg xmlns:xlink="http://www.w3.org/1999/xlink" width="476.442187pt" height="548.090062pt" viewBox="0 0 476.442187 548.090062" xmlns="http://www.w3.org/2000/svg" version="1.1">
 <metadata>
  <rdf:RDF xmlns:dc="http://purl.org/dc/elements/1.1/" xmlns:cc="http://creativecommons.org/ns#" xmlns:rdf="http://www.w3.org/1999/02/22-rdf-syntax-ns#">
   <cc:Work>
    <dc:type rdf:resource="http://purl.org/dc/dcmitype/StillImage"/>
    <dc:date>2025-09-10T02:17:39.188757</dc:date>
    <dc:format>image/svg+xml</dc:format>
    <dc:creator>
     <cc:Agent>
      <dc:title>Matplotlib v3.6.3, https://matplotlib.org/</dc:title>
     </cc:Agent>
    </dc:creator>
   </cc:Work>
  </rdf:RDF>
 </metadata>
 <defs>
  <style type="text/css">*{stroke-linejoin: round; stroke-linecap: butt}</style>
 </defs>
 <g id="figure_1">
  <g id="patch_1">
   <path d="M 0 548.090062 
L 476.442187 548.090062 
L 476.442187 0 
L 0 0 
z
" style="fill: #ffffff"/>
  </g>
  <g id="axes_1">
   <g id="patch_2">
    <path d="M 450.72 259.597812 
C 450.72 230.476556 444.983747 201.638467 433.839525 174.733935 
C 422.695303 147.829402 406.359838 123.381651 385.768 102.789813 
C 365.176162 82.197975 340.728411 65.86251 313.823878 54.718287 
C 286.919345 43.574065 258.081256 37.837812 228.96 37.837812 
C 199.838744 37.837812 171.000655 43.574065 144.096122 54.718287 
C 117.191589 65.86251 92.743838 82.197975 72.152 102.789813 
C 51.560162 123.381651 35.224697 147.829402 24.080475 174.733935 
C 12.936253 201.638467 7.2 230.476556 7.2 259.597812 
C 7.2 288.719069 12.936253 317.557158 24.080475 344.46169 
C 35.224697 371.366223 51.560162 395.813974 72.152 416.405812 
C 92.743838 436.99765 117.191589 453.333115 144.096122 464.477338 
C 171.000655 475.62156 199.838744 481.357812 228.96 481.357812 
C 258.081256 481.357812 286.919345 475.62156 313.823878 464.477338 
C 340.728411 453.333115 365.176162 436.99765 385.768 416.405812 
C 406.359838 395.813974 422.695303 371.366223 433.839525 344.46169 
C 444.983747 317.557158 450.72 288.719069 450.72 259.597812 
M 228.96 259.597812 
C 228.96 259.597812 228.96 259.597812 228.96 259.597812 
C 228.96 259.597812 228.96 259.597812 228.96 259.597812 
C 228.96 259.597812 228.96 259.597812 228.96 259.597812 
C 228.96 259.597812 228.96 259.597812 228.96 259.597812 
C 228.96 259.597812 228.96 259.597812 228.96 259.597812 
C 228.96 259.597812 228.96 259.597812 228.96 259.597812 
C 228.96 259.597812 228.96 259.597812 228.96 259.597812 
C 228.96 259.597812 228.96 259.597812 228.96 259.597812 
C 228.96 259.597812 228.96 259.597812 228.96 259.597812 
C 228.96 259.597812 228.96 259.597812 228.96 259.597812 
C 228.96 259.597812 228.96 259.597812 228.96 259.597812 
C 228.96 259.597812 228.96 259.597812 228.96 259.597812 
C 228.96 259.597812 228.96 259.597812 228.96 259.597812 
C 228.96 259.597812 228.96 259.597812 228.96 259.597812 
C 228.96 259.597812 228.96 259.597812 228.96 259.597812 
C 228.96 259.597812 228.96 259.597812 228.96 259.597812 
M 450.72 259.597812 
z
" style="fill: #ffffff"/>
   </g>
   <g id="patch_3">
    <path d="M 406.368 259.597812 
L 235.812761 238.507183 
L 211.01924 246.563086 
L 67.493145 376.910334 
L 235.812759 280.688442 
z
" clip-path="url(#pbd5d6469be)" style="fill: #e69f00; opacity: 0.15"/>
   </g>
   <g id="patch_4">
    <path d="M 362.016 259.597812 
L 256.371045 175.235296 
L 193.078479 233.528359 
L 121.31543 337.80616 
L 242.665518 301.779072 
z
" clip-path="url(#pbd5d6469be)" style="fill: #56b4e9; opacity: 0.15"/>
   </g>
   <g id="patch_5">
    <path d="M 339.84 259.597812 
L 270.076568 133.054038 
L 157.196959 207.458906 
L 175.137715 298.701986 
L 242.665518 301.779072 
z
" clip-path="url(#pbd5d6469be)" style="fill: #009e73; opacity: 0.15"/>
   </g>
   <g id="patch_6">
    <path d="M 295.488 259.597812 
L 263.223807 154.144667 
L 121.315438 181.389453 
L 193.078477 285.667262 
L 256.371036 343.960332 
z
" clip-path="url(#pbd5d6469be)" style="fill: #f0e442; opacity: 0.15"/>
   </g>
   <g id="matplotlib.axis_1">
    <g id="xtick_1">
     <g id="line2d_1">
      <path d="M 228.96 259.597812 
L 450.72 259.597812 
" clip-path="url(#pbd5d6469be)" style="fill: none; stroke-dasharray: 2.22,0.96; stroke-dashoffset: 0; stroke: #b0b0b0; stroke-opacity: 0.7; stroke-width: 0.6"/>
     </g>
     <g id="text_1">
      <!-- Qc -->
      <g style="fill: #1a1a1a" transform="translate(453.197813 262.909062) scale(0.12 -0.12)">
       <defs>
        <path id="DejaVuSans-51" d="M 2522 4238 
Q 1834 4238 1429 3725 
Q 1025 3213 1025 2328 
Q 1025 1447 1429 934 
Q 1834 422 2522 422 
Q 3209 422 3611 934 
Q 4013 1447 4013 2328 
Q 4013 3213 3611 3725 
Q 3209 4238 2522 4238 
z
M 3406 84 
L 4238 -825 
L 3475 -825 
L 2784 -78 
Q 2681 -84 2626 -87 
Q 2572 -91 2522 -91 
Q 1538 -91 948 567 
Q 359 1225 359 2328 
Q 359 3434 948 4092 
Q 1538 4750 2522 4750 
Q 3503 4750 4090 4092 
Q 4678 3434 4678 2328 
Q 4678 1516 4351 937 
Q 4025 359 3406 84 
z
" transform="scale(0.015625)"/>
        <path id="DejaVuSans-63" d="M 3122 3366 
L 3122 2828 
Q 2878 2963 2633 3030 
Q 2388 3097 2138 3097 
Q 1578 3097 1268 2742 
Q 959 2388 959 1747 
Q 959 1106 1268 751 
Q 1578 397 2138 397 
Q 2388 397 2633 464 
Q 2878 531 3122 666 
L 3122 134 
Q 2881 22 2623 -34 
Q 2366 -91 2075 -91 
Q 1284 -91 818 406 
Q 353 903 353 1747 
Q 353 2603 823 3093 
Q 1294 3584 2113 3584 
Q 2378 3584 2631 3529 
Q 2884 3475 3122 3366 
z
" transform="scale(0.015625)"/>
       </defs>
       <use xlink:href="#DejaVuSans-51"/>
       <use xlink:href="#DejaVuSans-63" x="78.710938"/>
      </g>
     </g>
    </g>
    <g id="xtick_2">
     <g id="line2d_2">
      <path d="M 228.96 259.597812 
L 297.487613 48.691521 
" clip-path="url(#pbd5d6469be)" style="fill: none; stroke-dasharray: 2.22,0.96; stroke-dashoffset: 0; stroke: #b0b0b0; stroke-opacity: 0.7; stroke-width: 0.6"/>
     </g>
     <g id="text_2">
      <!-- HoR -->
      <g style="fill: #1a1a1a" transform="translate(288.379792 42.016678) scale(0.12 -0.12)">
       <defs>
        <path id="DejaVuSans-48" d="M 628 4666 
L 1259 4666 
L 1259 2753 
L 3553 2753 
L 3553 4666 
L 4184 4666 
L 4184 0 
L 3553 0 
L 3553 2222 
L 1259 2222 
L 1259 0 
L 628 0 
L 628 4666 
z
" transform="scale(0.015625)"/>
        <path id="DejaVuSans-6f" d="M 1959 3097 
Q 1497 3097 1228 2736 
Q 959 2375 959 1747 
Q 959 1119 1226 758 
Q 1494 397 1959 397 
Q 2419 397 2687 759 
Q 2956 1122 2956 1747 
Q 2956 2369 2687 2733 
Q 2419 3097 1959 3097 
z
M 1959 3584 
Q 2709 3584 3137 3096 
Q 3566 2609 3566 1747 
Q 3566 888 3137 398 
Q 2709 -91 1959 -91 
Q 1206 -91 779 398 
Q 353 888 353 1747 
Q 353 2609 779 3096 
Q 1206 3584 1959 3584 
z
" transform="scale(0.015625)"/>
        <path id="DejaVuSans-52" d="M 2841 2188 
Q 3044 2119 3236 1894 
Q 3428 1669 3622 1275 
L 4263 0 
L 3584 0 
L 2988 1197 
Q 2756 1666 2539 1819 
Q 2322 1972 1947 1972 
L 1259 1972 
L 1259 0 
L 628 0 
L 628 4666 
L 2053 4666 
Q 2853 4666 3247 4331 
Q 3641 3997 3641 3322 
Q 3641 2881 3436 2590 
Q 3231 2300 2841 2188 
z
M 1259 4147 
L 1259 2491 
L 2053 2491 
Q 2509 2491 2742 2702 
Q 2975 2913 2975 3322 
Q 2975 3731 2742 3939 
Q 2509 4147 2053 4147 
L 1259 4147 
z
" transform="scale(0.015625)"/>
       </defs>
       <use xlink:href="#DejaVuSans-48"/>
       <use xlink:href="#DejaVuSans-6f" x="75.195312"/>
       <use xlink:href="#DejaVuSans-52" x="136.376953"/>
      </g>
     </g>
    </g>
    <g id="xtick_3">
     <g id="line2d_3">
      <path d="M 228.96 259.597812 
L 49.552397 129.250547 
" clip-path="url(#pbd5d6469be)" style="fill: none; stroke-dasharray: 2.22,0.96; stroke-dashoffset: 0; stroke: #b0b0b0; stroke-opacity: 0.7; stroke-width: 0.6"/>
     </g>
     <g id="text_3">
      <!-- Exp -->
      <g style="fill: #1a1a1a" transform="translate(29.906156 126.390052) scale(0.12 -0.12)">
       <defs>
        <path id="DejaVuSans-45" d="M 628 4666 
L 3578 4666 
L 3578 4134 
L 1259 4134 
L 1259 2753 
L 3481 2753 
L 3481 2222 
L 1259 2222 
L 1259 531 
L 3634 531 
L 3634 0 
L 628 0 
L 628 4666 
z
" transform="scale(0.015625)"/>
        <path id="DejaVuSans-78" d="M 3513 3500 
L 2247 1797 
L 3578 0 
L 2900 0 
L 1881 1375 
L 863 0 
L 184 0 
L 1544 1831 
L 300 3500 
L 978 3500 
L 1906 2253 
L 2834 3500 
L 3513 3500 
z
" transform="scale(0.015625)"/>
        <path id="DejaVuSans-70" d="M 1159 525 
L 1159 -1331 
L 581 -1331 
L 581 3500 
L 1159 3500 
L 1159 2969 
Q 1341 3281 1617 3432 
Q 1894 3584 2278 3584 
Q 2916 3584 3314 3078 
Q 3713 2572 3713 1747 
Q 3713 922 3314 415 
Q 2916 -91 2278 -91 
Q 1894 -91 1617 61 
Q 1341 213 1159 525 
z
M 3116 1747 
Q 3116 2381 2855 2742 
Q 2594 3103 2138 3103 
Q 1681 3103 1420 2742 
Q 1159 2381 1159 1747 
Q 1159 1113 1420 752 
Q 1681 391 2138 391 
Q 2594 391 2855 752 
Q 3116 1113 3116 1747 
z
" transform="scale(0.015625)"/>
       </defs>
       <use xlink:href="#DejaVuSans-45"/>
       <use xlink:href="#DejaVuSans-78" x="63.183594"/>
       <use xlink:href="#DejaVuSans-70" x="122.363281"/>
      </g>
     </g>
    </g>
    <g id="xtick_4">
     <g id="line2d_4">
      <path d="M 228.96 259.597812 
L 49.552383 389.945059 
" clip-path="url(#pbd5d6469be)" style="fill: none; stroke-dasharray: 2.22,0.96; stroke-dashoffset: 0; stroke: #b0b0b0; stroke-opacity: 0.7; stroke-width: 0.6"/>
     </g>
     <g id="text_4">
      <!-- Stb -->
      <g style="fill: #1a1a1a" transform="translate(31.087392 399.428053) scale(0.12 -0.12)">
       <defs>
        <path id="DejaVuSans-53" d="M 3425 4513 
L 3425 3897 
Q 3066 4069 2747 4153 
Q 2428 4238 2131 4238 
Q 1616 4238 1336 4038 
Q 1056 3838 1056 3469 
Q 1056 3159 1242 3001 
Q 1428 2844 1947 2747 
L 2328 2669 
Q 3034 2534 3370 2195 
Q 3706 1856 3706 1288 
Q 3706 609 3251 259 
Q 2797 -91 1919 -91 
Q 1588 -91 1214 -16 
Q 841 59 441 206 
L 441 856 
Q 825 641 1194 531 
Q 1563 422 1919 422 
Q 2459 422 2753 634 
Q 3047 847 3047 1241 
Q 3047 1584 2836 1778 
Q 2625 1972 2144 2069 
L 1759 2144 
Q 1053 2284 737 2584 
Q 422 2884 422 3419 
Q 422 4038 858 4394 
Q 1294 4750 2059 4750 
Q 2388 4750 2728 4690 
Q 3069 4631 3425 4513 
z
" transform="scale(0.015625)"/>
        <path id="DejaVuSans-74" d="M 1172 4494 
L 1172 3500 
L 2356 3500 
L 2356 3053 
L 1172 3053 
L 1172 1153 
Q 1172 725 1289 603 
Q 1406 481 1766 481 
L 2356 481 
L 2356 0 
L 1766 0 
Q 1100 0 847 248 
Q 594 497 594 1153 
L 594 3053 
L 172 3053 
L 172 3500 
L 594 3500 
L 594 4494 
L 1172 4494 
z
" transform="scale(0.015625)"/>
        <path id="DejaVuSans-62" d="M 3116 1747 
Q 3116 2381 2855 2742 
Q 2594 3103 2138 3103 
Q 1681 3103 1420 2742 
Q 1159 2381 1159 1747 
Q 1159 1113 1420 752 
Q 1681 391 2138 391 
Q 2594 391 2855 752 
Q 3116 1113 3116 1747 
z
M 1159 2969 
Q 1341 3281 1617 3432 
Q 1894 3584 2278 3584 
Q 2916 3584 3314 3078 
Q 3713 2572 3713 1747 
Q 3713 922 3314 415 
Q 2916 -91 2278 -91 
Q 1894 -91 1617 61 
Q 1341 213 1159 525 
L 1159 0 
L 581 0 
L 581 4863 
L 1159 4863 
L 1159 2969 
z
" transform="scale(0.015625)"/>
       </defs>
       <use xlink:href="#DejaVuSans-53"/>
       <use xlink:href="#DejaVuSans-74" x="63.476562"/>
       <use xlink:href="#DejaVuSans-62" x="102.685547"/>
      </g>
     </g>
    </g>
    <g id="xtick_5">
     <g id="line2d_5">
      <path d="M 228.96 259.597812 
L 297.487591 470.504111 
" clip-path="url(#pbd5d6469be)" style="fill: none; stroke-dasharray: 2.22,0.96; stroke-dashoffset: 0; stroke: #b0b0b0; stroke-opacity: 0.7; stroke-width: 0.6"/>
     </g>
     <g id="text_5">
      <!-- NLE -->
      <g style="fill: #1a1a1a" transform="translate(289.109143 483.801455) scale(0.12 -0.12)">
       <defs>
        <path id="DejaVuSans-4e" d="M 628 4666 
L 1478 4666 
L 3547 763 
L 3547 4666 
L 4159 4666 
L 4159 0 
L 3309 0 
L 1241 3903 
L 1241 0 
L 628 0 
L 628 4666 
z
" transform="scale(0.015625)"/>
        <path id="DejaVuSans-4c" d="M 628 4666 
L 1259 4666 
L 1259 531 
L 3531 531 
L 3531 0 
L 628 0 
L 628 4666 
z
" transform="scale(0.015625)"/>
       </defs>
       <use xlink:href="#DejaVuSans-4e"/>
       <use xlink:href="#DejaVuSans-4c" x="74.804688"/>
       <use xlink:href="#DejaVuSans-45" x="130.517578"/>
      </g>
     </g>
    </g>
   </g>
   <g id="matplotlib.axis_2">
    <g id="ytick_1">
     <g id="line2d_6">
      <path d="M 273.312 259.597812 
C 273.312 253.773561 272.164749 248.005943 269.935905 242.625037 
C 267.707061 237.24413 264.439968 232.35458 260.3216 228.236213 
C 256.203232 224.117845 251.313682 220.850752 245.932776 218.621907 
C 240.551869 216.393063 234.784251 215.245812 228.96 215.245812 
C 223.135749 215.245812 217.368131 216.393063 211.987224 218.621907 
C 206.606318 220.850752 201.716768 224.117845 197.5984 228.236213 
C 193.480032 232.35458 190.212939 237.24413 187.984095 242.625037 
C 185.755251 248.005943 184.608 253.773561 184.608 259.597812 
C 184.608 265.422064 185.755251 271.189682 187.984095 276.570588 
C 190.212939 281.951495 193.480032 286.841045 197.5984 290.959412 
C 201.716768 295.07778 206.606318 298.344873 211.987224 300.573718 
C 217.368131 302.802562 223.135749 303.949812 228.96 303.949812 
C 234.784251 303.949812 240.551869 302.802562 245.932776 300.573718 
C 251.313682 298.344873 256.203232 295.07778 260.3216 290.959412 
C 264.439968 286.841045 267.707061 281.951495 269.935905 276.570588 
C 272.164749 271.189682 273.312 265.422064 273.312 259.597812 
" clip-path="url(#pbd5d6469be)" style="fill: none; stroke-dasharray: 2.22,0.96; stroke-dashoffset: 0; stroke: #b0b0b0; stroke-opacity: 0.7; stroke-width: 0.6"/>
     </g>
     <g id="text_6">
      <!-- 10% -->
      <g style="fill: #808080" transform="translate(269.935905 240.545349) scale(0.1 -0.1)">
       <defs>
        <path id="DejaVuSans-31" d="M 794 531 
L 1825 531 
L 1825 4091 
L 703 3866 
L 703 4441 
L 1819 4666 
L 2450 4666 
L 2450 531 
L 3481 531 
L 3481 0 
L 794 0 
L 794 531 
z
" transform="scale(0.015625)"/>
        <path id="DejaVuSans-30" d="M 2034 4250 
Q 1547 4250 1301 3770 
Q 1056 3291 1056 2328 
Q 1056 1369 1301 889 
Q 1547 409 2034 409 
Q 2525 409 2770 889 
Q 3016 1369 3016 2328 
Q 3016 3291 2770 3770 
Q 2525 4250 2034 4250 
z
M 2034 4750 
Q 2819 4750 3233 4129 
Q 3647 3509 3647 2328 
Q 3647 1150 3233 529 
Q 2819 -91 2034 -91 
Q 1250 -91 836 529 
Q 422 1150 422 2328 
Q 422 3509 836 4129 
Q 1250 4750 2034 4750 
z
" transform="scale(0.015625)"/>
        <path id="DejaVuSans-25" d="M 4653 2053 
Q 4381 2053 4226 1822 
Q 4072 1591 4072 1178 
Q 4072 772 4226 539 
Q 4381 306 4653 306 
Q 4919 306 5073 539 
Q 5228 772 5228 1178 
Q 5228 1588 5073 1820 
Q 4919 2053 4653 2053 
z
M 4653 2450 
Q 5147 2450 5437 2106 
Q 5728 1763 5728 1178 
Q 5728 594 5436 251 
Q 5144 -91 4653 -91 
Q 4153 -91 3862 251 
Q 3572 594 3572 1178 
Q 3572 1766 3864 2108 
Q 4156 2450 4653 2450 
z
M 1428 4353 
Q 1159 4353 1004 4120 
Q 850 3888 850 3481 
Q 850 3069 1003 2837 
Q 1156 2606 1428 2606 
Q 1700 2606 1854 2837 
Q 2009 3069 2009 3481 
Q 2009 3884 1853 4118 
Q 1697 4353 1428 4353 
z
M 4250 4750 
L 4750 4750 
L 1831 -91 
L 1331 -91 
L 4250 4750 
z
M 1428 4750 
Q 1922 4750 2215 4408 
Q 2509 4066 2509 3481 
Q 2509 2891 2217 2550 
Q 1925 2209 1428 2209 
Q 931 2209 642 2551 
Q 353 2894 353 3481 
Q 353 4063 643 4406 
Q 934 4750 1428 4750 
z
" transform="scale(0.015625)"/>
       </defs>
       <use xlink:href="#DejaVuSans-31"/>
       <use xlink:href="#DejaVuSans-30" x="63.623047"/>
       <use xlink:href="#DejaVuSans-25" x="127.246094"/>
      </g>
     </g>
    </g>
    <g id="ytick_2">
     <g id="line2d_7">
      <path d="M 317.664 259.597812 
C 317.664 247.94931 315.369499 236.414074 310.91181 225.652261 
C 306.454121 214.890448 299.919935 205.111348 291.6832 196.874613 
C 283.446465 188.637877 273.667364 182.103691 262.905551 177.646002 
C 252.143738 173.188314 240.608503 170.893812 228.96 170.893812 
C 217.311497 170.893812 205.776262 173.188314 195.014449 177.646002 
C 184.252636 182.103691 174.473535 188.637877 166.2368 196.874613 
C 158.000065 205.111348 151.465879 214.890448 147.00819 225.652261 
C 142.550501 236.414074 140.256 247.94931 140.256 259.597812 
C 140.256 271.246315 142.550501 282.781551 147.00819 293.543364 
C 151.465879 304.305177 158.000065 314.084277 166.2368 322.321012 
C 174.473535 330.557748 184.252636 337.091934 195.014449 341.549623 
C 205.776262 346.007311 217.311497 348.301812 228.96 348.301812 
C 240.608503 348.301812 252.143738 346.007311 262.905551 341.549623 
C 273.667364 337.091934 283.446465 330.557748 291.6832 322.321012 
C 299.919935 314.084277 306.454121 304.305177 310.91181 293.543364 
C 315.369499 282.781551 317.664 271.246315 317.664 259.597812 
" clip-path="url(#pbd5d6469be)" style="fill: none; stroke-dasharray: 2.22,0.96; stroke-dashoffset: 0; stroke: #b0b0b0; stroke-opacity: 0.7; stroke-width: 0.6"/>
     </g>
     <g id="text_7">
      <!-- 20% -->
      <g style="fill: #808080" transform="translate(310.91181 223.572574) scale(0.1 -0.1)">
       <defs>
        <path id="DejaVuSans-32" d="M 1228 531 
L 3431 531 
L 3431 0 
L 469 0 
L 469 531 
Q 828 903 1448 1529 
Q 2069 2156 2228 2338 
Q 2531 2678 2651 2914 
Q 2772 3150 2772 3378 
Q 2772 3750 2511 3984 
Q 2250 4219 1831 4219 
Q 1534 4219 1204 4116 
Q 875 4013 500 3803 
L 500 4441 
Q 881 4594 1212 4672 
Q 1544 4750 1819 4750 
Q 2544 4750 2975 4387 
Q 3406 4025 3406 3419 
Q 3406 3131 3298 2873 
Q 3191 2616 2906 2266 
Q 2828 2175 2409 1742 
Q 1991 1309 1228 531 
z
" transform="scale(0.015625)"/>
       </defs>
       <use xlink:href="#DejaVuSans-32"/>
       <use xlink:href="#DejaVuSans-30" x="63.623047"/>
       <use xlink:href="#DejaVuSans-25" x="127.246094"/>
      </g>
     </g>
    </g>
    <g id="ytick_3">
     <g id="line2d_8">
      <path d="M 362.016 259.597812 
C 362.016 242.125059 358.574248 224.822205 351.887715 208.679486 
C 345.201182 192.536766 335.399903 177.868115 323.0448 165.513013 
C 310.689697 153.15791 296.021046 143.356631 279.878327 136.670097 
C 263.735607 129.983564 246.432754 126.541812 228.96 126.541812 
C 211.487246 126.541812 194.184393 129.983564 178.041673 136.670097 
C 161.898954 143.356631 147.230303 153.15791 134.8752 165.513013 
C 122.520097 177.868115 112.718818 192.536766 106.032285 208.679486 
C 99.345752 224.822205 95.904 242.125059 95.904 259.597812 
C 95.904 277.070566 99.345752 294.37342 106.032285 310.516139 
C 112.718818 326.658859 122.520097 341.32751 134.8752 353.682612 
C 147.230303 366.037715 161.898954 375.838994 178.041673 382.525528 
C 194.184393 389.212061 211.487246 392.653812 228.96 392.653812 
C 246.432754 392.653812 263.735607 389.212061 279.878327 382.525528 
C 296.021046 375.838994 310.689697 366.037715 323.0448 353.682612 
C 335.399903 341.32751 345.201182 326.658859 351.887715 310.516139 
C 358.574248 294.37342 362.016 277.070566 362.016 259.597812 
" clip-path="url(#pbd5d6469be)" style="fill: none; stroke-dasharray: 2.22,0.96; stroke-dashoffset: 0; stroke: #b0b0b0; stroke-opacity: 0.7; stroke-width: 0.6"/>
     </g>
     <g id="text_8">
      <!-- 30% -->
      <g style="fill: #808080" transform="translate(351.887715 206.599798) scale(0.1 -0.1)">
       <defs>
        <path id="DejaVuSans-33" d="M 2597 2516 
Q 3050 2419 3304 2112 
Q 3559 1806 3559 1356 
Q 3559 666 3084 287 
Q 2609 -91 1734 -91 
Q 1441 -91 1130 -33 
Q 819 25 488 141 
L 488 750 
Q 750 597 1062 519 
Q 1375 441 1716 441 
Q 2309 441 2620 675 
Q 2931 909 2931 1356 
Q 2931 1769 2642 2001 
Q 2353 2234 1838 2234 
L 1294 2234 
L 1294 2753 
L 1863 2753 
Q 2328 2753 2575 2939 
Q 2822 3125 2822 3475 
Q 2822 3834 2567 4026 
Q 2313 4219 1838 4219 
Q 1578 4219 1281 4162 
Q 984 4106 628 3988 
L 628 4550 
Q 988 4650 1302 4700 
Q 1616 4750 1894 4750 
Q 2613 4750 3031 4423 
Q 3450 4097 3450 3541 
Q 3450 3153 3228 2886 
Q 3006 2619 2597 2516 
z
" transform="scale(0.015625)"/>
       </defs>
       <use xlink:href="#DejaVuSans-33"/>
       <use xlink:href="#DejaVuSans-30" x="63.623047"/>
       <use xlink:href="#DejaVuSans-25" x="127.246094"/>
      </g>
     </g>
    </g>
    <g id="ytick_4">
     <g id="line2d_9">
      <path d="M 406.368 259.597812 
C 406.368 236.300807 401.778998 213.230336 392.86362 191.70671 
C 383.948242 170.183084 370.87987 150.624883 354.4064 134.151413 
C 337.93293 117.677942 318.374729 104.60957 296.851102 95.694192 
C 275.327476 86.778815 252.257005 82.189812 228.96 82.189812 
C 205.662995 82.189812 182.592524 86.778815 161.068898 95.694192 
C 139.545271 104.60957 119.98707 117.677942 103.5136 134.151413 
C 87.04013 150.624883 73.971758 170.183084 65.05638 191.70671 
C 56.141002 213.230336 51.552 236.300807 51.552 259.597812 
C 51.552 282.894818 56.141002 305.965289 65.05638 327.488915 
C 73.971758 349.012541 87.04013 368.570742 103.5136 385.044212 
C 119.98707 401.517683 139.545271 414.586055 161.068898 423.501433 
C 182.592524 432.41681 205.662995 437.005812 228.96 437.005812 
C 252.257005 437.005812 275.327476 432.41681 296.851102 423.501433 
C 318.374729 414.586055 337.93293 401.517683 354.4064 385.044212 
C 370.87987 368.570742 383.948242 349.012541 392.86362 327.488915 
C 401.778998 305.965289 406.368 282.894818 406.368 259.597812 
" clip-path="url(#pbd5d6469be)" style="fill: none; stroke-dasharray: 2.22,0.96; stroke-dashoffset: 0; stroke: #b0b0b0; stroke-opacity: 0.7; stroke-width: 0.6"/>
     </g>
     <g id="text_9">
      <!-- 40% -->
      <g style="fill: #808080" transform="translate(392.86362 189.627023) scale(0.1 -0.1)">
       <defs>
        <path id="DejaVuSans-34" d="M 2419 4116 
L 825 1625 
L 2419 1625 
L 2419 4116 
z
M 2253 4666 
L 3047 4666 
L 3047 1625 
L 3713 1625 
L 3713 1100 
L 3047 1100 
L 3047 0 
L 2419 0 
L 2419 1100 
L 313 1100 
L 313 1709 
L 2253 4666 
z
" transform="scale(0.015625)"/>
       </defs>
       <use xlink:href="#DejaVuSans-34"/>
       <use xlink:href="#DejaVuSans-30" x="63.623047"/>
       <use xlink:href="#DejaVuSans-25" x="127.246094"/>
      </g>
     </g>
    </g>
    <g id="ytick_5">
     <g id="line2d_10">
      <path d="M 450.72 259.597812 
C 450.72 230.476556 444.983747 201.638467 433.839525 174.733935 
C 422.695303 147.829402 406.359838 123.381651 385.768 102.789813 
C 365.176162 82.197975 340.728411 65.86251 313.823878 54.718287 
C 286.919345 43.574065 258.081256 37.837812 228.96 37.837812 
C 199.838744 37.837812 171.000655 43.574065 144.096122 54.718287 
C 117.191589 65.86251 92.743838 82.197975 72.152 102.789813 
C 51.560162 123.381651 35.224697 147.829402 24.080475 174.733935 
C 12.936253 201.638467 7.2 230.476556 7.2 259.597812 
C 7.2 288.719069 12.936253 317.557158 24.080475 344.46169 
C 35.224697 371.366223 51.560162 395.813974 72.152 416.405812 
C 92.743838 436.99765 117.191589 453.333115 144.096122 464.477338 
C 171.000655 475.62156 199.838744 481.357812 228.96 481.357812 
C 258.081256 481.357812 286.919345 475.62156 313.823878 464.477338 
C 340.728411 453.333115 365.176162 436.99765 385.768 416.405812 
C 406.359838 395.813974 422.695303 371.366223 433.839525 344.46169 
C 444.983747 317.557158 450.72 288.719069 450.72 259.597812 
" clip-path="url(#pbd5d6469be)" style="fill: none; stroke-dasharray: 2.22,0.96; stroke-dashoffset: 0; stroke: #b0b0b0; stroke-opacity: 0.7; stroke-width: 0.6"/>
     </g>
     <g id="text_10">
      <!-- 50% -->
      <g style="fill: #808080" transform="translate(433.839525 172.654247) scale(0.1 -0.1)">
       <defs>
        <path id="DejaVuSans-35" d="M 691 4666 
L 3169 4666 
L 3169 4134 
L 1269 4134 
L 1269 2991 
Q 1406 3038 1543 3061 
Q 1681 3084 1819 3084 
Q 2600 3084 3056 2656 
Q 3513 2228 3513 1497 
Q 3513 744 3044 326 
Q 2575 -91 1722 -91 
Q 1428 -91 1123 -41 
Q 819 9 494 109 
L 494 744 
Q 775 591 1075 516 
Q 1375 441 1709 441 
Q 2250 441 2565 725 
Q 2881 1009 2881 1497 
Q 2881 1984 2565 2268 
Q 2250 2553 1709 2553 
Q 1456 2553 1204 2497 
Q 953 2441 691 2322 
L 691 4666 
z
" transform="scale(0.015625)"/>
       </defs>
       <use xlink:href="#DejaVuSans-35"/>
       <use xlink:href="#DejaVuSans-30" x="63.623047"/>
       <use xlink:href="#DejaVuSans-25" x="127.246094"/>
      </g>
     </g>
    </g>
   </g>
   <g id="line2d_11">
    <path d="M 406.368 259.597812 
L 235.812761 238.507183 
L 211.01924 246.563086 
L 67.493145 376.910334 
L 235.812759 280.688442 
L 406.368 259.597812 
" clip-path="url(#pbd5d6469be)" style="fill: none; stroke: #e69f00; stroke-width: 2; stroke-linecap: square"/>
   </g>
   <g id="line2d_12">
    <path d="M 362.016 259.597812 
L 256.371045 175.235296 
L 193.078479 233.528359 
L 121.31543 337.80616 
L 242.665518 301.779072 
L 362.016 259.597812 
" clip-path="url(#pbd5d6469be)" style="fill: none; stroke: #56b4e9; stroke-width: 2; stroke-linecap: square"/>
   </g>
   <g id="line2d_13">
    <path d="M 339.84 259.597812 
L 270.076568 133.054038 
L 157.196959 207.458906 
L 175.137715 298.701986 
L 242.665518 301.779072 
L 339.84 259.597812 
" clip-path="url(#pbd5d6469be)" style="fill: none; stroke: #009e73; stroke-width: 2; stroke-linecap: square"/>
   </g>
   <g id="line2d_14">
    <path d="M 295.488 259.597812 
L 263.223807 154.144667 
L 121.315438 181.389453 
L 193.078477 285.667262 
L 256.371036 343.960332 
L 295.488 259.597812 
" clip-path="url(#pbd5d6469be)" style="fill: none; stroke: #f0e442; stroke-width: 2; stroke-linecap: square"/>
   </g>
   <g id="patch_7">
    <path d="M 450.72 259.597812 
C 450.72 230.476556 444.983747 201.638467 433.839525 174.733935 
C 422.695303 147.829402 406.359838 123.381651 385.768 102.789813 
C 365.176162 82.197975 340.728411 65.86251 313.823878 54.718287 
C 286.919345 43.574065 258.081256 37.837812 228.96 37.837812 
C 199.838744 37.837812 171.000655 43.574065 144.096122 54.718287 
C 117.191589 65.86251 92.743838 82.197975 72.152 102.789813 
C 51.560162 123.381651 35.224697 147.829402 24.080475 174.733935 
C 12.936253 201.638467 7.2 230.476556 7.2 259.597812 
C 7.2 288.719069 12.936253 317.557158 24.080475 344.46169 
C 35.224697 371.366223 51.560162 395.813974 72.152 416.405812 
C 92.743838 436.99765 117.191589 453.333115 144.096122 464.477338 
C 171.000655 475.62156 199.838744 481.357812 228.96 481.357812 
C 258.081256 481.357812 286.919345 475.62156 313.823878 464.477338 
C 340.728411 453.333115 365.176162 436.99765 385.768 416.405812 
C 406.359838 395.813974 422.695303 371.366223 433.839525 344.46169 
C 444.983747 317.557158 450.72 288.719069 450.72 259.597812 
" style="fill: none; stroke: #1a1a1a; stroke-linejoin: miter; stroke-linecap: square"/>
   </g>
   <g id="text_11">
    <!-- SPI Dimension Weights Across AI System Scales -->
    <g style="fill: #333333" transform="translate(39.279687 17.837812) scale(0.14 -0.14)">
     <defs>
      <path id="DejaVuSans-Bold-53" d="M 3834 4519 
L 3834 3531 
Q 3450 3703 3084 3790 
Q 2719 3878 2394 3878 
Q 1963 3878 1756 3759 
Q 1550 3641 1550 3391 
Q 1550 3203 1689 3098 
Q 1828 2994 2194 2919 
L 2706 2816 
Q 3484 2659 3812 2340 
Q 4141 2022 4141 1434 
Q 4141 663 3683 286 
Q 3225 -91 2284 -91 
Q 1841 -91 1394 -6 
Q 947 78 500 244 
L 500 1259 
Q 947 1022 1364 901 
Q 1781 781 2169 781 
Q 2563 781 2772 912 
Q 2981 1044 2981 1288 
Q 2981 1506 2839 1625 
Q 2697 1744 2272 1838 
L 1806 1941 
Q 1106 2091 782 2419 
Q 459 2747 459 3303 
Q 459 4000 909 4375 
Q 1359 4750 2203 4750 
Q 2588 4750 2994 4692 
Q 3400 4634 3834 4519 
z
" transform="scale(0.015625)"/>
      <path id="DejaVuSans-Bold-50" d="M 588 4666 
L 2584 4666 
Q 3475 4666 3951 4270 
Q 4428 3875 4428 3144 
Q 4428 2409 3951 2014 
Q 3475 1619 2584 1619 
L 1791 1619 
L 1791 0 
L 588 0 
L 588 4666 
z
M 1791 3794 
L 1791 2491 
L 2456 2491 
Q 2806 2491 2997 2661 
Q 3188 2831 3188 3144 
Q 3188 3456 2997 3625 
Q 2806 3794 2456 3794 
L 1791 3794 
z
" transform="scale(0.015625)"/>
      <path id="DejaVuSans-Bold-49" d="M 588 4666 
L 1791 4666 
L 1791 0 
L 588 0 
L 588 4666 
z
" transform="scale(0.015625)"/>
      <path id="DejaVuSans-Bold-20" transform="scale(0.015625)"/>
      <path id="DejaVuSans-Bold-44" d="M 1791 3756 
L 1791 909 
L 2222 909 
Q 2959 909 3348 1275 
Q 3738 1641 3738 2338 
Q 3738 3031 3350 3393 
Q 2963 3756 2222 3756 
L 1791 3756 
z
M 588 4666 
L 1856 4666 
Q 2919 4666 3439 4514 
Q 3959 4363 4331 4000 
Q 4659 3684 4818 3271 
Q 4978 2859 4978 2338 
Q 4978 1809 4818 1395 
Q 4659 981 4331 666 
Q 3956 303 3431 151 
Q 2906 0 1856 0 
L 588 0 
L 588 4666 
z
" transform="scale(0.015625)"/>
      <path id="DejaVuSans-Bold-69" d="M 538 3500 
L 1656 3500 
L 1656 0 
L 538 0 
L 538 3500 
z
M 538 4863 
L 1656 4863 
L 1656 3950 
L 538 3950 
L 538 4863 
z
" transform="scale(0.015625)"/>
      <path id="DejaVuSans-Bold-6d" d="M 3781 2919 
Q 3994 3244 4286 3414 
Q 4578 3584 4928 3584 
Q 5531 3584 5847 3212 
Q 6163 2841 6163 2131 
L 6163 0 
L 5038 0 
L 5038 1825 
Q 5041 1866 5042 1909 
Q 5044 1953 5044 2034 
Q 5044 2406 4934 2573 
Q 4825 2741 4581 2741 
Q 4263 2741 4089 2478 
Q 3916 2216 3909 1719 
L 3909 0 
L 2784 0 
L 2784 1825 
Q 2784 2406 2684 2573 
Q 2584 2741 2328 2741 
Q 2006 2741 1831 2477 
Q 1656 2213 1656 1722 
L 1656 0 
L 531 0 
L 531 3500 
L 1656 3500 
L 1656 2988 
Q 1863 3284 2130 3434 
Q 2397 3584 2719 3584 
Q 3081 3584 3359 3409 
Q 3638 3234 3781 2919 
z
" transform="scale(0.015625)"/>
      <path id="DejaVuSans-Bold-65" d="M 4031 1759 
L 4031 1441 
L 1416 1441 
Q 1456 1047 1700 850 
Q 1944 653 2381 653 
Q 2734 653 3104 758 
Q 3475 863 3866 1075 
L 3866 213 
Q 3469 63 3072 -14 
Q 2675 -91 2278 -91 
Q 1328 -91 801 392 
Q 275 875 275 1747 
Q 275 2603 792 3093 
Q 1309 3584 2216 3584 
Q 3041 3584 3536 3087 
Q 4031 2591 4031 1759 
z
M 2881 2131 
Q 2881 2450 2695 2645 
Q 2509 2841 2209 2841 
Q 1884 2841 1681 2658 
Q 1478 2475 1428 2131 
L 2881 2131 
z
" transform="scale(0.015625)"/>
      <path id="DejaVuSans-Bold-6e" d="M 4056 2131 
L 4056 0 
L 2931 0 
L 2931 347 
L 2931 1631 
Q 2931 2084 2911 2256 
Q 2891 2428 2841 2509 
Q 2775 2619 2662 2680 
Q 2550 2741 2406 2741 
Q 2056 2741 1856 2470 
Q 1656 2200 1656 1722 
L 1656 0 
L 538 0 
L 538 3500 
L 1656 3500 
L 1656 2988 
Q 1909 3294 2193 3439 
Q 2478 3584 2822 3584 
Q 3428 3584 3742 3212 
Q 4056 2841 4056 2131 
z
" transform="scale(0.015625)"/>
      <path id="DejaVuSans-Bold-73" d="M 3272 3391 
L 3272 2541 
Q 2913 2691 2578 2766 
Q 2244 2841 1947 2841 
Q 1628 2841 1473 2761 
Q 1319 2681 1319 2516 
Q 1319 2381 1436 2309 
Q 1553 2238 1856 2203 
L 2053 2175 
Q 2913 2066 3209 1816 
Q 3506 1566 3506 1031 
Q 3506 472 3093 190 
Q 2681 -91 1863 -91 
Q 1516 -91 1145 -36 
Q 775 19 384 128 
L 384 978 
Q 719 816 1070 734 
Q 1422 653 1784 653 
Q 2113 653 2278 743 
Q 2444 834 2444 1013 
Q 2444 1163 2330 1236 
Q 2216 1309 1875 1350 
L 1678 1375 
Q 931 1469 631 1722 
Q 331 1975 331 2491 
Q 331 3047 712 3315 
Q 1094 3584 1881 3584 
Q 2191 3584 2531 3537 
Q 2872 3491 3272 3391 
z
" transform="scale(0.015625)"/>
      <path id="DejaVuSans-Bold-6f" d="M 2203 2784 
Q 1831 2784 1636 2517 
Q 1441 2250 1441 1747 
Q 1441 1244 1636 976 
Q 1831 709 2203 709 
Q 2569 709 2762 976 
Q 2956 1244 2956 1747 
Q 2956 2250 2762 2517 
Q 2569 2784 2203 2784 
z
M 2203 3584 
Q 3106 3584 3614 3096 
Q 4122 2609 4122 1747 
Q 4122 884 3614 396 
Q 3106 -91 2203 -91 
Q 1297 -91 786 396 
Q 275 884 275 1747 
Q 275 2609 786 3096 
Q 1297 3584 2203 3584 
z
" transform="scale(0.015625)"/>
      <path id="DejaVuSans-Bold-57" d="M 191 4666 
L 1344 4666 
L 2150 1275 
L 2950 4666 
L 4109 4666 
L 4909 1275 
L 5716 4666 
L 6859 4666 
L 5759 0 
L 4372 0 
L 3525 3547 
L 2688 0 
L 1300 0 
L 191 4666 
z
" transform="scale(0.015625)"/>
      <path id="DejaVuSans-Bold-67" d="M 2919 594 
Q 2688 288 2409 144 
Q 2131 0 1766 0 
Q 1125 0 706 504 
Q 288 1009 288 1791 
Q 288 2575 706 3076 
Q 1125 3578 1766 3578 
Q 2131 3578 2409 3434 
Q 2688 3291 2919 2981 
L 2919 3500 
L 4044 3500 
L 4044 353 
Q 4044 -491 3511 -936 
Q 2978 -1381 1966 -1381 
Q 1638 -1381 1331 -1331 
Q 1025 -1281 716 -1178 
L 716 -306 
Q 1009 -475 1290 -558 
Q 1572 -641 1856 -641 
Q 2406 -641 2662 -400 
Q 2919 -159 2919 353 
L 2919 594 
z
M 2181 2772 
Q 1834 2772 1640 2515 
Q 1447 2259 1447 1791 
Q 1447 1309 1634 1061 
Q 1822 813 2181 813 
Q 2531 813 2725 1069 
Q 2919 1325 2919 1791 
Q 2919 2259 2725 2515 
Q 2531 2772 2181 2772 
z
" transform="scale(0.015625)"/>
      <path id="DejaVuSans-Bold-68" d="M 4056 2131 
L 4056 0 
L 2931 0 
L 2931 347 
L 2931 1625 
Q 2931 2084 2911 2256 
Q 2891 2428 2841 2509 
Q 2775 2619 2662 2680 
Q 2550 2741 2406 2741 
Q 2056 2741 1856 2470 
Q 1656 2200 1656 1722 
L 1656 0 
L 538 0 
L 538 4863 
L 1656 4863 
L 1656 2988 
Q 1909 3294 2193 3439 
Q 2478 3584 2822 3584 
Q 3428 3584 3742 3212 
Q 4056 2841 4056 2131 
z
" transform="scale(0.015625)"/>
      <path id="DejaVuSans-Bold-74" d="M 1759 4494 
L 1759 3500 
L 2913 3500 
L 2913 2700 
L 1759 2700 
L 1759 1216 
Q 1759 972 1856 886 
Q 1953 800 2241 800 
L 2816 800 
L 2816 0 
L 1856 0 
Q 1194 0 917 276 
Q 641 553 641 1216 
L 641 2700 
L 84 2700 
L 84 3500 
L 641 3500 
L 641 4494 
L 1759 4494 
z
" transform="scale(0.015625)"/>
      <path id="DejaVuSans-Bold-41" d="M 3419 850 
L 1538 850 
L 1241 0 
L 31 0 
L 1759 4666 
L 3194 4666 
L 4922 0 
L 3713 0 
L 3419 850 
z
M 1838 1716 
L 3116 1716 
L 2478 3572 
L 1838 1716 
z
" transform="scale(0.015625)"/>
      <path id="DejaVuSans-Bold-63" d="M 3366 3391 
L 3366 2478 
Q 3138 2634 2908 2709 
Q 2678 2784 2431 2784 
Q 1963 2784 1702 2511 
Q 1441 2238 1441 1747 
Q 1441 1256 1702 982 
Q 1963 709 2431 709 
Q 2694 709 2930 787 
Q 3166 866 3366 1019 
L 3366 103 
Q 3103 6 2833 -42 
Q 2563 -91 2291 -91 
Q 1344 -91 809 395 
Q 275 881 275 1747 
Q 275 2613 809 3098 
Q 1344 3584 2291 3584 
Q 2566 3584 2833 3536 
Q 3100 3488 3366 3391 
z
" transform="scale(0.015625)"/>
      <path id="DejaVuSans-Bold-72" d="M 3138 2547 
Q 2991 2616 2845 2648 
Q 2700 2681 2553 2681 
Q 2122 2681 1889 2404 
Q 1656 2128 1656 1613 
L 1656 0 
L 538 0 
L 538 3500 
L 1656 3500 
L 1656 2925 
Q 1872 3269 2151 3426 
Q 2431 3584 2822 3584 
Q 2878 3584 2943 3579 
Q 3009 3575 3134 3559 
L 3138 2547 
z
" transform="scale(0.015625)"/>
      <path id="DejaVuSans-Bold-79" d="M 78 3500 
L 1197 3500 
L 2138 1125 
L 2938 3500 
L 4056 3500 
L 2584 -331 
Q 2363 -916 2067 -1148 
Q 1772 -1381 1288 -1381 
L 641 -1381 
L 641 -647 
L 991 -647 
Q 1275 -647 1404 -556 
Q 1534 -466 1606 -231 
L 1638 -134 
L 78 3500 
z
" transform="scale(0.015625)"/>
      <path id="DejaVuSans-Bold-61" d="M 2106 1575 
Q 1756 1575 1579 1456 
Q 1403 1338 1403 1106 
Q 1403 894 1545 773 
Q 1688 653 1941 653 
Q 2256 653 2472 879 
Q 2688 1106 2688 1447 
L 2688 1575 
L 2106 1575 
z
M 3816 1997 
L 3816 0 
L 2688 0 
L 2688 519 
Q 2463 200 2181 54 
Q 1900 -91 1497 -91 
Q 953 -91 614 226 
Q 275 544 275 1050 
Q 275 1666 698 1953 
Q 1122 2241 2028 2241 
L 2688 2241 
L 2688 2328 
Q 2688 2594 2478 2717 
Q 2269 2841 1825 2841 
Q 1466 2841 1156 2769 
Q 847 2697 581 2553 
L 581 3406 
Q 941 3494 1303 3539 
Q 1666 3584 2028 3584 
Q 2975 3584 3395 3211 
Q 3816 2838 3816 1997 
z
" transform="scale(0.015625)"/>
      <path id="DejaVuSans-Bold-6c" d="M 538 4863 
L 1656 4863 
L 1656 0 
L 538 0 
L 538 4863 
z
" transform="scale(0.015625)"/>
     </defs>
     <use xlink:href="#DejaVuSans-Bold-53"/>
     <use xlink:href="#DejaVuSans-Bold-50" x="72.021484"/>
     <use xlink:href="#DejaVuSans-Bold-49" x="145.3125"/>
     <use xlink:href="#DejaVuSans-Bold-20" x="182.519531"/>
     <use xlink:href="#DejaVuSans-Bold-44" x="217.333984"/>
     <use xlink:href="#DejaVuSans-Bold-69" x="300.341797"/>
     <use xlink:href="#DejaVuSans-Bold-6d" x="334.619141"/>
     <use xlink:href="#DejaVuSans-Bold-65" x="438.818359"/>
     <use xlink:href="#DejaVuSans-Bold-6e" x="506.640625"/>
     <use xlink:href="#DejaVuSans-Bold-73" x="577.832031"/>
     <use xlink:href="#DejaVuSans-Bold-69" x="637.353516"/>
     <use xlink:href="#DejaVuSans-Bold-6f" x="671.630859"/>
     <use xlink:href="#DejaVuSans-Bold-6e" x="740.332031"/>
     <use xlink:href="#DejaVuSans-Bold-20" x="811.523438"/>
     <use xlink:href="#DejaVuSans-Bold-57" x="846.337891"/>
     <use xlink:href="#DejaVuSans-Bold-65" x="953.015625"/>
     <use xlink:href="#DejaVuSans-Bold-69" x="1020.837891"/>
     <use xlink:href="#DejaVuSans-Bold-67" x="1055.115234"/>
     <use xlink:href="#DejaVuSans-Bold-68" x="1126.697266"/>
     <use xlink:href="#DejaVuSans-Bold-74" x="1197.888672"/>
     <use xlink:href="#DejaVuSans-Bold-73" x="1245.691406"/>
     <use xlink:href="#DejaVuSans-Bold-20" x="1305.212891"/>
     <use xlink:href="#DejaVuSans-Bold-41" x="1340.027344"/>
     <use xlink:href="#DejaVuSans-Bold-63" x="1417.419922"/>
     <use xlink:href="#DejaVuSans-Bold-72" x="1476.697266"/>
     <use xlink:href="#DejaVuSans-Bold-6f" x="1526.013672"/>
     <use xlink:href="#DejaVuSans-Bold-73" x="1594.714844"/>
     <use xlink:href="#DejaVuSans-Bold-73" x="1654.236328"/>
     <use xlink:href="#DejaVuSans-Bold-20" x="1713.757812"/>
     <use xlink:href="#DejaVuSans-Bold-41" x="1748.572266"/>
     <use xlink:href="#DejaVuSans-Bold-49" x="1825.964844"/>
     <use xlink:href="#DejaVuSans-Bold-20" x="1863.171875"/>
     <use xlink:href="#DejaVuSans-Bold-53" x="1897.986328"/>
     <use xlink:href="#DejaVuSans-Bold-79" x="1970.007812"/>
     <use xlink:href="#DejaVuSans-Bold-73" x="2035.193359"/>
     <use xlink:href="#DejaVuSans-Bold-74" x="2094.714844"/>
     <use xlink:href="#DejaVuSans-Bold-65" x="2142.517578"/>
     <use xlink:href="#DejaVuSans-Bold-6d" x="2210.339844"/>
     <use xlink:href="#DejaVuSans-Bold-20" x="2314.539062"/>
     <use xlink:href="#DejaVuSans-Bold-53" x="2349.353516"/>
     <use xlink:href="#DejaVuSans-Bold-63" x="2421.375"/>
     <use xlink:href="#DejaVuSans-Bold-61" x="2480.652344"/>
     <use xlink:href="#DejaVuSans-Bold-6c" x="2548.132812"/>
     <use xlink:href="#DejaVuSans-Bold-65" x="2582.410156"/>
     <use xlink:href="#DejaVuSans-Bold-73" x="2650.232422"/>
    </g>
   </g>
   <g id="legend_1">
    <g id="line2d_15">
     <path d="M 72.002969 516.63225 
L 82.002969 516.63225 
L 92.002969 516.63225 
" style="fill: none; stroke: #e69f00; stroke-width: 2; stroke-linecap: square"/>
    </g>
    <g id="text_12">
     <!-- Function/Module -->
     <g style="fill: #333333" transform="translate(100.002969 520.13225) scale(0.1 -0.1)">
      <defs>
       <path id="DejaVuSans-46" d="M 628 4666 
L 3309 4666 
L 3309 4134 
L 1259 4134 
L 1259 2759 
L 3109 2759 
L 3109 2228 
L 1259 2228 
L 1259 0 
L 628 0 
L 628 4666 
z
" transform="scale(0.015625)"/>
       <path id="DejaVuSans-75" d="M 544 1381 
L 544 3500 
L 1119 3500 
L 1119 1403 
Q 1119 906 1312 657 
Q 1506 409 1894 409 
Q 2359 409 2629 706 
Q 2900 1003 2900 1516 
L 2900 3500 
L 3475 3500 
L 3475 0 
L 2900 0 
L 2900 538 
Q 2691 219 2414 64 
Q 2138 -91 1772 -91 
Q 1169 -91 856 284 
Q 544 659 544 1381 
z
M 1991 3584 
L 1991 3584 
z
" transform="scale(0.015625)"/>
       <path id="DejaVuSans-6e" d="M 3513 2113 
L 3513 0 
L 2938 0 
L 2938 2094 
Q 2938 2591 2744 2837 
Q 2550 3084 2163 3084 
Q 1697 3084 1428 2787 
Q 1159 2491 1159 1978 
L 1159 0 
L 581 0 
L 581 3500 
L 1159 3500 
L 1159 2956 
Q 1366 3272 1645 3428 
Q 1925 3584 2291 3584 
Q 2894 3584 3203 3211 
Q 3513 2838 3513 2113 
z
" transform="scale(0.015625)"/>
       <path id="DejaVuSans-69" d="M 603 3500 
L 1178 3500 
L 1178 0 
L 603 0 
L 603 3500 
z
M 603 4863 
L 1178 4863 
L 1178 4134 
L 603 4134 
L 603 4863 
z
" transform="scale(0.015625)"/>
       <path id="DejaVuSans-2f" d="M 1625 4666 
L 2156 4666 
L 531 -594 
L 0 -594 
L 1625 4666 
z
" transform="scale(0.015625)"/>
       <path id="DejaVuSans-4d" d="M 628 4666 
L 1569 4666 
L 2759 1491 
L 3956 4666 
L 4897 4666 
L 4897 0 
L 4281 0 
L 4281 4097 
L 3078 897 
L 2444 897 
L 1241 4097 
L 1241 0 
L 628 0 
L 628 4666 
z
" transform="scale(0.015625)"/>
       <path id="DejaVuSans-64" d="M 2906 2969 
L 2906 4863 
L 3481 4863 
L 3481 0 
L 2906 0 
L 2906 525 
Q 2725 213 2448 61 
Q 2172 -91 1784 -91 
Q 1150 -91 751 415 
Q 353 922 353 1747 
Q 353 2572 751 3078 
Q 1150 3584 1784 3584 
Q 2172 3584 2448 3432 
Q 2725 3281 2906 2969 
z
M 947 1747 
Q 947 1113 1208 752 
Q 1469 391 1925 391 
Q 2381 391 2643 752 
Q 2906 1113 2906 1747 
Q 2906 2381 2643 2742 
Q 2381 3103 1925 3103 
Q 1469 3103 1208 2742 
Q 947 2381 947 1747 
z
" transform="scale(0.015625)"/>
       <path id="DejaVuSans-6c" d="M 603 4863 
L 1178 4863 
L 1178 0 
L 603 0 
L 603 4863 
z
" transform="scale(0.015625)"/>
       <path id="DejaVuSans-65" d="M 3597 1894 
L 3597 1613 
L 953 1613 
Q 991 1019 1311 708 
Q 1631 397 2203 397 
Q 2534 397 2845 478 
Q 3156 559 3463 722 
L 3463 178 
Q 3153 47 2828 -22 
Q 2503 -91 2169 -91 
Q 1331 -91 842 396 
Q 353 884 353 1716 
Q 353 2575 817 3079 
Q 1281 3584 2069 3584 
Q 2775 3584 3186 3129 
Q 3597 2675 3597 1894 
z
M 3022 2063 
Q 3016 2534 2758 2815 
Q 2500 3097 2075 3097 
Q 1594 3097 1305 2825 
Q 1016 2553 972 2059 
L 3022 2063 
z
" transform="scale(0.015625)"/>
      </defs>
      <use xlink:href="#DejaVuSans-46"/>
      <use xlink:href="#DejaVuSans-75" x="52.019531"/>
      <use xlink:href="#DejaVuSans-6e" x="115.398438"/>
      <use xlink:href="#DejaVuSans-63" x="178.777344"/>
      <use xlink:href="#DejaVuSans-74" x="233.757812"/>
      <use xlink:href="#DejaVuSans-69" x="272.966797"/>
      <use xlink:href="#DejaVuSans-6f" x="300.75"/>
      <use xlink:href="#DejaVuSans-6e" x="361.931641"/>
      <use xlink:href="#DejaVuSans-2f" x="425.310547"/>
      <use xlink:href="#DejaVuSans-4d" x="459.001953"/>
      <use xlink:href="#DejaVuSans-6f" x="545.28125"/>
      <use xlink:href="#DejaVuSans-64" x="606.462891"/>
      <use xlink:href="#DejaVuSans-75" x="669.939453"/>
      <use xlink:href="#DejaVuSans-6c" x="733.318359"/>
      <use xlink:href="#DejaVuSans-65" x="761.101562"/>
     </g>
    </g>
    <g id="line2d_16">
     <path d="M 72.002969 531.310375 
L 82.002969 531.310375 
L 92.002969 531.310375 
" style="fill: none; stroke: #56b4e9; stroke-width: 2; stroke-linecap: square"/>
    </g>
    <g id="text_13">
     <!-- Pipeline/MCP Agent -->
     <g style="fill: #333333" transform="translate(100.002969 534.810375) scale(0.1 -0.1)">
      <defs>
       <path id="DejaVuSans-50" d="M 1259 4147 
L 1259 2394 
L 2053 2394 
Q 2494 2394 2734 2622 
Q 2975 2850 2975 3272 
Q 2975 3691 2734 3919 
Q 2494 4147 2053 4147 
L 1259 4147 
z
M 628 4666 
L 2053 4666 
Q 2838 4666 3239 4311 
Q 3641 3956 3641 3272 
Q 3641 2581 3239 2228 
Q 2838 1875 2053 1875 
L 1259 1875 
L 1259 0 
L 628 0 
L 628 4666 
z
" transform="scale(0.015625)"/>
       <path id="DejaVuSans-43" d="M 4122 4306 
L 4122 3641 
Q 3803 3938 3442 4084 
Q 3081 4231 2675 4231 
Q 1875 4231 1450 3742 
Q 1025 3253 1025 2328 
Q 1025 1406 1450 917 
Q 1875 428 2675 428 
Q 3081 428 3442 575 
Q 3803 722 4122 1019 
L 4122 359 
Q 3791 134 3420 21 
Q 3050 -91 2638 -91 
Q 1578 -91 968 557 
Q 359 1206 359 2328 
Q 359 3453 968 4101 
Q 1578 4750 2638 4750 
Q 3056 4750 3426 4639 
Q 3797 4528 4122 4306 
z
" transform="scale(0.015625)"/>
       <path id="DejaVuSans-20" transform="scale(0.015625)"/>
       <path id="DejaVuSans-41" d="M 2188 4044 
L 1331 1722 
L 3047 1722 
L 2188 4044 
z
M 1831 4666 
L 2547 4666 
L 4325 0 
L 3669 0 
L 3244 1197 
L 1141 1197 
L 716 0 
L 50 0 
L 1831 4666 
z
" transform="scale(0.015625)"/>
       <path id="DejaVuSans-67" d="M 2906 1791 
Q 2906 2416 2648 2759 
Q 2391 3103 1925 3103 
Q 1463 3103 1205 2759 
Q 947 2416 947 1791 
Q 947 1169 1205 825 
Q 1463 481 1925 481 
Q 2391 481 2648 825 
Q 2906 1169 2906 1791 
z
M 3481 434 
Q 3481 -459 3084 -895 
Q 2688 -1331 1869 -1331 
Q 1566 -1331 1297 -1286 
Q 1028 -1241 775 -1147 
L 775 -588 
Q 1028 -725 1275 -790 
Q 1522 -856 1778 -856 
Q 2344 -856 2625 -561 
Q 2906 -266 2906 331 
L 2906 616 
Q 2728 306 2450 153 
Q 2172 0 1784 0 
Q 1141 0 747 490 
Q 353 981 353 1791 
Q 353 2603 747 3093 
Q 1141 3584 1784 3584 
Q 2172 3584 2450 3431 
Q 2728 3278 2906 2969 
L 2906 3500 
L 3481 3500 
L 3481 434 
z
" transform="scale(0.015625)"/>
      </defs>
      <use xlink:href="#DejaVuSans-50"/>
      <use xlink:href="#DejaVuSans-69" x="58.052734"/>
      <use xlink:href="#DejaVuSans-70" x="85.835938"/>
      <use xlink:href="#DejaVuSans-65" x="149.3125"/>
      <use xlink:href="#DejaVuSans-6c" x="210.835938"/>
      <use xlink:href="#DejaVuSans-69" x="238.619141"/>
      <use xlink:href="#DejaVuSans-6e" x="266.402344"/>
      <use xlink:href="#DejaVuSans-65" x="329.78125"/>
      <use xlink:href="#DejaVuSans-2f" x="391.304688"/>
      <use xlink:href="#DejaVuSans-4d" x="424.996094"/>
      <use xlink:href="#DejaVuSans-43" x="511.275391"/>
      <use xlink:href="#DejaVuSans-50" x="581.099609"/>
      <use xlink:href="#DejaVuSans-20" x="641.402344"/>
      <use xlink:href="#DejaVuSans-41" x="673.189453"/>
      <use xlink:href="#DejaVuSans-67" x="741.597656"/>
      <use xlink:href="#DejaVuSans-65" x="805.074219"/>
      <use xlink:href="#DejaVuSans-6e" x="866.597656"/>
      <use xlink:href="#DejaVuSans-74" x="929.976562"/>
     </g>
    </g>
    <g id="line2d_17">
     <path d="M 216.921719 516.63225 
L 226.921719 516.63225 
L 236.921719 516.63225 
" style="fill: none; stroke: #009e73; stroke-width: 2; stroke-linecap: square"/>
    </g>
    <g id="text_14">
     <!-- Multi-Agent System -->
     <g style="fill: #333333" transform="translate(244.921719 520.13225) scale(0.1 -0.1)">
      <defs>
       <path id="DejaVuSans-2d" d="M 313 2009 
L 1997 2009 
L 1997 1497 
L 313 1497 
L 313 2009 
z
" transform="scale(0.015625)"/>
       <path id="DejaVuSans-79" d="M 2059 -325 
Q 1816 -950 1584 -1140 
Q 1353 -1331 966 -1331 
L 506 -1331 
L 506 -850 
L 844 -850 
Q 1081 -850 1212 -737 
Q 1344 -625 1503 -206 
L 1606 56 
L 191 3500 
L 800 3500 
L 1894 763 
L 2988 3500 
L 3597 3500 
L 2059 -325 
z
" transform="scale(0.015625)"/>
       <path id="DejaVuSans-73" d="M 2834 3397 
L 2834 2853 
Q 2591 2978 2328 3040 
Q 2066 3103 1784 3103 
Q 1356 3103 1142 2972 
Q 928 2841 928 2578 
Q 928 2378 1081 2264 
Q 1234 2150 1697 2047 
L 1894 2003 
Q 2506 1872 2764 1633 
Q 3022 1394 3022 966 
Q 3022 478 2636 193 
Q 2250 -91 1575 -91 
Q 1294 -91 989 -36 
Q 684 19 347 128 
L 347 722 
Q 666 556 975 473 
Q 1284 391 1588 391 
Q 1994 391 2212 530 
Q 2431 669 2431 922 
Q 2431 1156 2273 1281 
Q 2116 1406 1581 1522 
L 1381 1569 
Q 847 1681 609 1914 
Q 372 2147 372 2553 
Q 372 3047 722 3315 
Q 1072 3584 1716 3584 
Q 2034 3584 2315 3537 
Q 2597 3491 2834 3397 
z
" transform="scale(0.015625)"/>
       <path id="DejaVuSans-6d" d="M 3328 2828 
Q 3544 3216 3844 3400 
Q 4144 3584 4550 3584 
Q 5097 3584 5394 3201 
Q 5691 2819 5691 2113 
L 5691 0 
L 5113 0 
L 5113 2094 
Q 5113 2597 4934 2840 
Q 4756 3084 4391 3084 
Q 3944 3084 3684 2787 
Q 3425 2491 3425 1978 
L 3425 0 
L 2847 0 
L 2847 2094 
Q 2847 2600 2669 2842 
Q 2491 3084 2119 3084 
Q 1678 3084 1418 2786 
Q 1159 2488 1159 1978 
L 1159 0 
L 581 0 
L 581 3500 
L 1159 3500 
L 1159 2956 
Q 1356 3278 1631 3431 
Q 1906 3584 2284 3584 
Q 2666 3584 2933 3390 
Q 3200 3197 3328 2828 
z
" transform="scale(0.015625)"/>
      </defs>
      <use xlink:href="#DejaVuSans-4d"/>
      <use xlink:href="#DejaVuSans-75" x="86.279297"/>
      <use xlink:href="#DejaVuSans-6c" x="149.658203"/>
      <use xlink:href="#DejaVuSans-74" x="177.441406"/>
      <use xlink:href="#DejaVuSans-69" x="216.650391"/>
      <use xlink:href="#DejaVuSans-2d" x="244.433594"/>
      <use xlink:href="#DejaVuSans-41" x="278.267578"/>
      <use xlink:href="#DejaVuSans-67" x="346.675781"/>
      <use xlink:href="#DejaVuSans-65" x="410.152344"/>
      <use xlink:href="#DejaVuSans-6e" x="471.675781"/>
      <use xlink:href="#DejaVuSans-74" x="535.054688"/>
      <use xlink:href="#DejaVuSans-20" x="574.263672"/>
      <use xlink:href="#DejaVuSans-53" x="606.050781"/>
      <use xlink:href="#DejaVuSans-79" x="669.527344"/>
      <use xlink:href="#DejaVuSans-73" x="728.707031"/>
      <use xlink:href="#DejaVuSans-74" x="780.806641"/>
      <use xlink:href="#DejaVuSans-65" x="820.015625"/>
      <use xlink:href="#DejaVuSans-6d" x="881.539062"/>
     </g>
    </g>
    <g id="line2d_18">
     <path d="M 216.921719 531.310375 
L 226.921719 531.310375 
L 236.921719 531.310375 
" style="fill: none; stroke: #f0e442; stroke-width: 2; stroke-linecap: square"/>
    </g>
    <g id="text_15">
     <!-- Programming Robot/AI Tutor -->
     <g style="fill: #333333" transform="translate(244.921719 534.810375) scale(0.1 -0.1)">
      <defs>
       <path id="DejaVuSans-72" d="M 2631 2963 
Q 2534 3019 2420 3045 
Q 2306 3072 2169 3072 
Q 1681 3072 1420 2755 
Q 1159 2438 1159 1844 
L 1159 0 
L 581 0 
L 581 3500 
L 1159 3500 
L 1159 2956 
Q 1341 3275 1631 3429 
Q 1922 3584 2338 3584 
Q 2397 3584 2469 3576 
Q 2541 3569 2628 3553 
L 2631 2963 
z
" transform="scale(0.015625)"/>
       <path id="DejaVuSans-61" d="M 2194 1759 
Q 1497 1759 1228 1600 
Q 959 1441 959 1056 
Q 959 750 1161 570 
Q 1363 391 1709 391 
Q 2188 391 2477 730 
Q 2766 1069 2766 1631 
L 2766 1759 
L 2194 1759 
z
M 3341 1997 
L 3341 0 
L 2766 0 
L 2766 531 
Q 2569 213 2275 61 
Q 1981 -91 1556 -91 
Q 1019 -91 701 211 
Q 384 513 384 1019 
Q 384 1609 779 1909 
Q 1175 2209 1959 2209 
L 2766 2209 
L 2766 2266 
Q 2766 2663 2505 2880 
Q 2244 3097 1772 3097 
Q 1472 3097 1187 3025 
Q 903 2953 641 2809 
L 641 3341 
Q 956 3463 1253 3523 
Q 1550 3584 1831 3584 
Q 2591 3584 2966 3190 
Q 3341 2797 3341 1997 
z
" transform="scale(0.015625)"/>
       <path id="DejaVuSans-49" d="M 628 4666 
L 1259 4666 
L 1259 0 
L 628 0 
L 628 4666 
z
" transform="scale(0.015625)"/>
       <path id="DejaVuSans-54" d="M -19 4666 
L 3928 4666 
L 3928 4134 
L 2272 4134 
L 2272 0 
L 1638 0 
L 1638 4134 
L -19 4134 
L -19 4666 
z
" transform="scale(0.015625)"/>
      </defs>
      <use xlink:href="#DejaVuSans-50"/>
      <use xlink:href="#DejaVuSans-72" x="58.552734"/>
      <use xlink:href="#DejaVuSans-6f" x="97.416016"/>
      <use xlink:href="#DejaVuSans-67" x="158.597656"/>
      <use xlink:href="#DejaVuSans-72" x="222.074219"/>
      <use xlink:href="#DejaVuSans-61" x="263.1875"/>
      <use xlink:href="#DejaVuSans-6d" x="324.466797"/>
      <use xlink:href="#DejaVuSans-6d" x="421.878906"/>
      <use xlink:href="#DejaVuSans-69" x="519.291016"/>
      <use xlink:href="#DejaVuSans-6e" x="547.074219"/>
      <use xlink:href="#DejaVuSans-67" x="610.453125"/>
      <use xlink:href="#DejaVuSans-20" x="673.929688"/>
      <use xlink:href="#DejaVuSans-52" x="705.716797"/>
      <use xlink:href="#DejaVuSans-6f" x="770.699219"/>
      <use xlink:href="#DejaVuSans-62" x="831.880859"/>
      <use xlink:href="#DejaVuSans-6f" x="895.357422"/>
      <use xlink:href="#DejaVuSans-74" x="956.539062"/>
      <use xlink:href="#DejaVuSans-2f" x="995.748047"/>
      <use xlink:href="#DejaVuSans-41" x="1029.439453"/>
      <use xlink:href="#DejaVuSans-49" x="1097.847656"/>
      <use xlink:href="#DejaVuSans-20" x="1127.339844"/>
      <use xlink:href="#DejaVuSans-54" x="1159.126953"/>
      <use xlink:href="#DejaVuSans-75" x="1205.085938"/>
      <use xlink:href="#DejaVuSans-74" x="1268.464844"/>
      <use xlink:href="#DejaVuSans-6f" x="1307.673828"/>
      <use xlink:href="#DejaVuSans-72" x="1368.855469"/>
     </g>
    </g>
   </g>
  </g>
 </g>
 <defs>
  <clipPath id="pbd5d6469be">
   <path d="M 450.72 259.597812 
C 450.72 230.476556 444.983747 201.638467 433.839525 174.733935 
C 422.695303 147.829402 406.359838 123.381651 385.768 102.789813 
C 365.176162 82.197975 340.728411 65.86251 313.823878 54.718287 
C 286.919345 43.574065 258.081256 37.837812 228.96 37.837812 
C 199.838744 37.837812 171.000655 43.574065 144.096122 54.718287 
C 117.191589 65.86251 92.743838 82.197975 72.152 102.789813 
C 51.560162 123.381651 35.224697 147.829402 24.080475 174.733935 
C 12.936253 201.638467 7.2 230.476556 7.2 259.597812 
C 7.2 288.719069 12.936253 317.557158 24.080475 344.46169 
C 35.224697 371.366223 51.560162 395.813974 72.152 416.405812 
C 92.743838 436.99765 117.191589 453.333115 144.096122 464.477338 
C 171.000655 475.62156 199.838744 481.357812 228.96 481.357812 
C 258.081256 481.357812 286.919345 475.62156 313.823878 464.477338 
C 340.728411 453.333115 365.176162 436.99765 385.768 416.405812 
C 406.359838 395.813974 422.695303 371.366223 433.839525 344.46169 
C 444.983747 317.557158 450.72 288.719069 450.72 259.597812 
M 228.96 259.597812 
C 228.96 259.597812 228.96 259.597812 228.96 259.597812 
C 228.96 259.597812 228.96 259.597812 228.96 259.597812 
C 228.96 259.597812 228.96 259.597812 228.96 259.597812 
C 228.96 259.597812 228.96 259.597812 228.96 259.597812 
C 228.96 259.597812 228.96 259.597812 228.96 259.597812 
C 228.96 259.597812 228.96 259.597812 228.96 259.597812 
C 228.96 259.597812 228.96 259.597812 228.96 259.597812 
C 228.96 259.597812 228.96 259.597812 228.96 259.597812 
C 228.96 259.597812 228.96 259.597812 228.96 259.597812 
C 228.96 259.597812 228.96 259.597812 228.96 259.597812 
C 228.96 259.597812 228.96 259.597812 228.96 259.597812 
C 228.96 259.597812 228.96 259.597812 228.96 259.597812 
C 228.96 259.597812 228.96 259.597812 228.96 259.597812 
C 228.96 259.597812 228.96 259.597812 228.96 259.597812 
C 228.96 259.597812 228.96 259.597812 228.96 259.597812 
C 228.96 259.597812 228.96 259.597812 228.96 259.597812 
M 450.72 259.597812 
z
"/>
  </clipPath>
 </defs>
</svg>
